<svg width="980" height="551" xmlns="http://www.w3.org/2000/svg" xmlns:xlink="http://www.w3.org/1999/xlink">
<path fill="#ff595e" d="M 47.68 415.56 Q 47.68 415.56 47.68 415.56 47.67 415.56 47.67 415.57 47.67 415.57 47.67 415.56 Z" data-drauu_index="0"></path><path fill="#ff595e" d="M 448.73 321.01 Q 448.73 321.01 457.98 319.80 467.24 318.59 472.48 318.50 477.72 318.41 481.68 318.37 485.64 318.33 488.62 318.31 491.60 318.30 495.02 318.29 498.45 318.28 501.63 318.28 504.81 318.28 507.89 318.28 510.96 318.27 513.57 318.27 516.17 318.27 519.00 318.27 521.83 318.27 524.02 318.06 526.21 317.85 527.97 317.55 529.73 317.25 531.57 316.91 533.41 316.57 535.16 316.41 536.91 316.25 538.04 316.19 539.17 316.13 540.70 315.74 542.23 315.34 543.42 315.14 544.61 314.95 547.40 315.01 550.19 315.08 550.19 315.09 550.19 315.09 550.20 315.10 550.20 315.10 548.00 316.93 545.81 318.76 544.82 319.03 543.83 319.29 542.73 319.33 541.63 319.37 540.58 319.73 539.53 320.09 538.39 320.16 537.26 320.23 535.70 320.37 534.14 320.50 532.27 320.85 530.39 321.20 528.49 321.52 526.59 321.83 524.21 322.05 521.83 322.27 519.00 322.27 516.17 322.27 513.57 322.27 510.96 322.27 507.89 322.28 504.81 322.28 501.63 322.28 498.45 322.28 495.04 322.29 491.62 322.30 488.65 322.31 485.68 322.33 481.74 322.37 477.79 322.41 472.56 322.50 467.33 322.59 458.03 321.81 448.73 321.03 448.73 321.02 Z" data-drauu_index="0"></path>
</svg>